<?xml version="1.0" encoding="iso-8859-1"?>
<!-- Generator: Adobe Illustrator 18.0.0, SVG Export Plug-In . SVG Version: 6.00 Build 0)  -->
<!DOCTYPE svg PUBLIC "-//W3C//DTD SVG 1.1//EN" "http://www.w3.org/Graphics/SVG/1.1/DTD/svg11.dtd">
<svg xmlns="http://www.w3.org/2000/svg" xmlns:xlink="http://www.w3.org/1999/xlink" version="1.1" id="Capa_1" x="0px" y="0px" viewBox="0 0 494.622 494.622" style="enable-background:new 0 0 494.622 494.622;" xml:space="preserve" width="512px" height="512px">
<g id="XMLID_3_">
	<path id="XMLID_5_" d="M282.073,299.336c-3.537-3.544-8.33-5.525-13.346-5.525c-5.009,0-9.802,1.982-13.346,5.525l-24.898,24.915   L109.517,203.268l24.897-24.897c7.376-7.367,7.376-19.315,0-26.684L61.471,78.743c-3.685-3.683-8.51-5.534-13.339-5.534   c-4.833,0-9.662,1.852-13.343,5.534l-24.9,24.915c-31.476,31.493,14.678,128.679,103.115,217.106   c69.589,69.582,144.615,112.998,188.753,112.998c11.947,0,21.634-3.183,28.337-9.893l-0.043-0.049l24.965-24.85   c7.369-7.375,7.369-19.315,0-26.691L282.073,299.336z" fill="#f09c00"/>
	<path id="XMLID_4_" d="M475.036,60.859H139.16c-10.817,0-19.586,8.769-19.586,19.586v8.766l38.647,38.646   c9.932,9.926,15.408,23.132,15.408,37.168c0,14.044-5.477,27.25-15.401,37.158l-1.086,1.085l26.001,26.002l53.227-44.174   l-84.439-70.091c-5.372-4.456-6.11-12.416-1.655-17.785c4.458-5.37,12.425-6.103,17.787-1.653l139.041,115.415L446.141,95.567   c5.369-4.449,13.336-3.717,17.787,1.653c4.455,5.369,3.717,13.329-1.655,17.785l-84.44,70.091l84.292,70.243   c5.352,4.459,6.082,12.409,1.634,17.77l0,0c-4.461,5.375-12.438,6.108-17.805,1.637L358.06,201.51l-42.892,35.605   c-2.336,1.939-5.204,2.91-8.065,2.91c-2.864,0-5.732-0.971-8.067-2.91l-42.889-35.605l-55.069,45.702l17.687,17.687l11.709,11.709   l1.094-1.085c4.556-4.556,9.852-8.042,15.549-10.624c6.718-3.042,14.012-4.77,21.611-4.77c7.606,0,14.908,1.728,21.616,4.77   c5.707,2.582,11.003,6.068,15.541,10.624l30.68,30.679h138.473c10.817,0,19.586-8.77,19.586-19.586V80.445   C494.622,69.628,485.853,60.859,475.036,60.859z" fill="#f09c00"/>
</g>
<g>
</g>
<g>
</g>
<g>
</g>
<g>
</g>
<g>
</g>
<g>
</g>
<g>
</g>
<g>
</g>
<g>
</g>
<g>
</g>
<g>
</g>
<g>
</g>
<g>
</g>
<g>
</g>
<g>
</g>
</svg>
